HIERARCHY
ROOT Hips
{
	OFFSET	0.00	0.00	0.00
	CHANNELS 6 Xposition Yposition Zposition Zrotation Xrotation Yrotation
	JOINT LeftUpLeg
	{
		OFFSET	 0.126116	-0.065224	 0.014019
		CHANNELS 3 Zrotation Xrotation Yrotation
		JOINT LeftLowerLeg
		{
			OFFSET	 0.000000	 0.569914	 0.000000
			CHANNELS 3 Zrotation Xrotation Yrotation
			JOINT LeftFoot
			{
				OFFSET	 0.000000	 0.544423	 0.000000
				CHANNELS 3 Zrotation Xrotation Yrotation
				JOINT LeftToeBase
				{
					OFFSET	 0.000000	 0.207117	 0.000000
					CHANNELS 3 Zrotation Xrotation Yrotation
					End Site
					{
						OFFSET	 0.000000	 0.207117	 0.000000
					}
				}
			}
		}
	}
	JOINT RightUpLeg
	{
		OFFSET	-0.124023	-0.065224	 0.008373
		CHANNELS 3 Zrotation Xrotation Yrotation
		JOINT RightLeg
		{
			OFFSET	 0.000000	 0.570047	 0.000000
			CHANNELS 3 Zrotation Xrotation Yrotation
			JOINT RightFoot
			{
				OFFSET	 0.000000	 0.544354	 0.000000
				CHANNELS 3 Zrotation Xrotation Yrotation
				JOINT RightToeBase
				{
					OFFSET	 0.000000	 0.207540	 0.000000
					CHANNELS 3 Zrotation Xrotation Yrotation
					End Site
					{
						OFFSET	 0.000000	 0.207540	 0.000000
					}
				}
			}
		}
	}
	JOINT Spine
	{
		OFFSET	 0.000184	 0.117403	 0.007763
		CHANNELS 3 Zrotation Xrotation Yrotation
		JOINT Spine1
		{
			OFFSET	 0.000000	 0.137269	 0.000000
			CHANNELS 3 Zrotation Xrotation Yrotation
			JOINT Spine2
			{
				OFFSET	 0.000000	 0.156879	 0.000000
				CHANNELS 3 Zrotation Xrotation Yrotation
				JOINT LeftShoulder
				{
					OFFSET	 0.080501	 0.160143	 0.002496
					CHANNELS 3 Zrotation Xrotation Yrotation
					JOINT LeftArm
					{
						OFFSET	 0.000000	 0.164363	 0.000000
						CHANNELS 3 Zrotation Xrotation Yrotation
						JOINT LeftForeArm
						{
							OFFSET	 0.000000	 0.364576	 0.000000
							CHANNELS 3 Zrotation Xrotation Yrotation
							JOINT LeftHand
							{
								OFFSET	 0.000000	 0.360812	 0.000000
								CHANNELS 3 Zrotation Xrotation Yrotation
								JOINT LeftHandIndex1
								{
									OFFSET	 0.000000	 0.086006	 0.000000
									CHANNELS 3 Zrotation Xrotation Yrotation
									JOINT LeftHandIndex2
									{
										OFFSET	 0.000000	 0.047237	 0.000000
										CHANNELS 3 Zrotation Xrotation Yrotation
										JOINT LeftHandIndex3
										{
											OFFSET	-0.004284	 0.038165	 0.000551
											CHANNELS 3 Zrotation Xrotation Yrotation
											End Site
											{
												OFFSET	-0.004284	 0.038165	 0.000551
											}
										}
									}
								}
							}
						}
					}
				}
				JOINT Neck
				{
					OFFSET	 0.000000	 0.176489	 0.000000
					CHANNELS 3 Zrotation Xrotation Yrotation
					JOINT Head
					{
						OFFSET	 0.000000	 0.077941	 0.001747
						CHANNELS 3 Zrotation Xrotation Yrotation
						End Site
						{
							OFFSET	 0.000000	 0.077941	 0.001747
						}
					}
				}
				JOINT RightShoulder
				{
					OFFSET	-0.080363	 0.159706	-0.000306
					CHANNELS 3 Zrotation Xrotation Yrotation
					JOINT RightArm
					{
						OFFSET	 0.000000	 0.164196	 0.000000
						CHANNELS 3 Zrotation Xrotation Yrotation
						JOINT RightForeArm
						{
							OFFSET	 0.000000	 0.365611	 0.000000
							CHANNELS 3 Zrotation Xrotation Yrotation
							JOINT RightHand
							{
								OFFSET	 0.000000	 0.360648	 0.000000
								CHANNELS 3 Zrotation Xrotation Yrotation
								JOINT RightHandIndex1
								{
									OFFSET	 0.000000	 0.069977	 0.000000
									CHANNELS 3 Zrotation Xrotation Yrotation
									JOINT RightHandIndex2
									{
										OFFSET	 0.000000	 0.052305	 0.000000
										CHANNELS 3 Zrotation Xrotation Yrotation
										JOINT RightHandIndex3
										{
											OFFSET	 0.009002	 0.042196	 0.000782
											CHANNELS 3 Zrotation Xrotation Yrotation
											End Site
											{
												OFFSET	 0.009002	 0.042196	 0.000782
											}
										}
									}
								}
							}
						}
					}
				}
			}
		}
	}
}
MOTION
Frames:    13
Frame Time: 0.03333334
 0.588111	 1.117621	-0.183981	 18.629940	-16.003070	-87.941800	 179.513200	 39.786270	-30.077650	 35.052040	-80.879780	 42.505110	 49.585480	 32.194440	-56.278270	 0.124542	 43.378310	-4.141870	 129.555200	 60.008260	 42.091350	-11.182500	-66.039860	-11.982400	-49.789910	 55.963840	 68.265270	-1.645431	 33.303650	 2.847487	 4.026660	 11.852030	 7.770129	-8.153934	 1.855969	 7.558854	 11.399000	 19.511460	-1.455602	-103.104200	 4.101277	 91.108070	-14.740330	 63.424320	 24.176610	 37.649010	-1.851217	 1.235600	-26.895590	 4.645988	 56.996880	-2.715315	 1.721889	-8.336903	-6.929929	 7.704002	 1.937557	 4.963066	-4.014628	-0.346955	 11.794480	 3.193512	 2.399688	 0.235664	 6.778804	-44.871640	 88.718800	 6.515348	-91.698820	-44.932200	 35.907450	 75.457890	-82.257210	-5.238965	 5.718835	 35.811150	 10.239720	-8.415516	-3.105182	 16.473060	-2.146623	 14.263060	 21.709590	-6.407779	-8.239867	-2.131385	 0.447455
 0.603529	 1.135531	-0.189019	 15.724940	-13.077350	-82.664890	-176.896000	 26.890430	-32.887620	 20.920380	-75.521920	 29.144290	 44.175780	 31.277850	-51.613170	-0.115035	 41.476330	-3.355142	 133.281100	 52.780370	 42.374230	-9.865606	-63.297340	-10.814490	-50.320890	 54.860980	 68.010900	-1.646607	 33.322600	 2.848629	 4.201205	 10.550690	 7.685324	-8.152160	 2.813463	 7.030439	 12.784330	 17.106030	-1.768029	-101.665500	 3.208935	 90.888340	-16.542480	 65.634610	 26.013530	 34.045220	-1.706224	 1.226527	-27.937650	 6.230234	 57.885700	-2.196627	 1.589601	-8.372143	-6.981943	 8.027289	 2.001790	 4.963066	-4.014628	-0.346955	 13.167760	 5.062882	 1.933222	-1.483755	 7.588881	-44.903950	 89.850630	 5.140791	-92.392070	-48.089120	 31.514180	 81.122450	-77.289660	-5.158065	 5.620884	 30.513940	 12.291700	-15.280880	-2.914859	 16.796760	-2.341671	 14.256550	 21.837210	-6.440280	-8.239867	-2.131385	 0.447455
 0.635195	 1.157555	-0.183020	 15.336990	-10.661950	-75.298590	-178.958900	 18.205620	-28.247370	 10.900120	-64.007040	 18.065610	 42.848370	 40.960340	-59.923310	 0.813398	 40.696750	-4.841875	 131.792300	 45.776990	 48.548750	-8.013270	-58.274190	-8.994746	-46.519160	 52.736420	 63.587360	-1.648115	 33.345540	 2.849889	 3.946856	 9.594203	 8.436575	-8.717012	-0.694955	 6.988358	 12.677180	 16.180630	-3.263269	-101.602100	 1.660016	 91.181960	-15.249260	 64.659480	 24.453950	 33.223240	-1.674631	 1.260488	-23.800700	 5.145542	 56.799600	-2.336577	 6.378232	-8.109676	-7.002009	 8.090030	 2.014411	 4.963066	-4.014628	-0.346955	 14.485880	 3.715559	 0.847268	-2.130065	 5.479855	-45.973970	 89.279710	 3.023415	-92.077730	-47.579810	 22.163470	 86.752030	-63.482670	-4.733390	 6.427628	 26.825610	 4.506337	-17.908310	-2.913770	 16.735030	-2.448569	 14.285620	 22.122650	-6.527151	-8.239867	-2.131385	 0.447455
 0.663204	 1.163213	-0.172847	 14.354530	-8.713154	-67.134130	 179.909300	 14.550600	-24.103440	 7.712318	-55.509310	 13.360010	 45.826540	 48.571920	-71.426510	 1.798741	 39.812070	-6.450166	 129.144500	 38.458600	 55.423840	-7.455195	-56.407030	-8.289556	-44.124010	 52.173320	 61.153300	-1.649786	 33.370960	 2.851285	 3.254261	 8.845419	 8.540333	-6.773351	-0.207891	 6.675599	 11.207970	 13.382420	-4.826534	-101.522600	-0.056423	 91.509310	-11.151280	 63.708710	 20.102140	 34.052060	-1.715707	 1.349102	-19.586730	 5.808394	 54.179640	-2.520277	 11.691250	-7.800307	-7.024267	 8.159555	 2.028427	 4.963066	-4.014628	-0.346955	 15.915050	 2.193652	-0.318414	-2.900363	 3.252172	-47.178740	 88.661170	 0.672702	-91.754350	-43.705700	 9.754401	 91.972180	-43.009640	-3.611779	 7.489347	 15.230510	-2.131134	-20.346870	-2.912705	 16.666620	-2.566999	 14.318460	 22.438950	-6.623819	-8.239867	-2.131385	 0.447455
 0.691494	 1.167597	-0.166272	 13.437010	-7.197758	-60.589810	 179.149700	 12.856220	-19.634680	 6.367220	-50.261140	 10.783690	 52.261530	 52.662210	-83.165540	 2.382708	 38.269910	-7.521043	 128.270000	 33.049850	 60.115100	-6.980215	-54.656480	-7.670455	-42.698760	 51.399640	 59.289990	-1.657492	 33.361220	 2.867887	 2.806578	 8.270198	 8.547822	-5.728281	 0.486705	 6.312333	 10.266310	 11.229200	-6.177694	-101.477100	-1.381930	 92.036930	-6.556451	 62.951390	 15.187240	 34.662040	-1.745298	 1.418955	-15.387160	 5.439281	 52.019700	-2.751600	 15.285970	-7.547302	-7.043590	 8.220549	 2.040533	 4.963066	-4.014628	-0.346955	 16.876300	 0.567192	-1.323768	-3.262856	 1.360884	-48.110790	 88.186640	-1.300395	-91.488730	-38.346650	-5.474067	 95.423390	-14.154430	-1.296298	 8.371927	-1.325511	-8.289815	-21.080260	-2.911856	 16.608510	-2.667557	 14.342990	 22.690870	-6.700424	-8.239867	-2.131385	 0.447455
 0.728661	 1.170992	-0.161782	 12.697760	-5.971388	-55.256160	 178.019400	 13.237730	-14.682420	 5.894329	-48.082410	 10.388530	 58.901160	 51.737960	-88.366460	 2.021479	 33.206110	-7.469836	 128.043600	 29.854070	 63.099900	-6.316609	-51.927140	-6.821941	-40.261680	 49.289910	 55.771430	-1.693256	 33.211640	 2.953551	 2.498539	 7.947766	 8.958691	-5.805894	 0.501478	 6.366287	 9.685860	 10.728880	-7.680688	-101.546200	-2.167048	 93.686880	 1.188083	 61.720430	 6.162331	 35.986050	-1.802056	 1.499194	-9.126308	 3.315194	 53.342600	-3.218991	 14.956650	-7.406602	-7.065377	 8.292245	 2.053869	 4.963066	-4.014628	-0.346955	 16.810880	-2.515215	-2.561103	-2.166930	-0.917375	-48.620330	 87.885200	-3.230094	-91.178550	-33.794440	-11.110950	 96.067670	-4.887466	-0.451807	 8.161433	-4.124323	-18.845560	-19.621090	-2.910817	 16.548490	-2.771486	 14.351470	 22.876970	-6.753848	-8.239867	-2.131385	 0.447455
 0.766120	 1.171766	-0.158624	 11.907510	-4.973179	-50.204380	 176.920100	 15.255320	-10.580530	 6.006660	-48.617370	 10.437500	 66.297780	 50.895900	-93.716320	 1.701007	 28.406230	-7.457199	 127.885700	 27.130470	 65.972710	-5.858435	-49.824040	-6.156563	-38.820050	 47.444130	 53.112400	-1.726805	 33.070010	 3.034396	 2.172565	 7.709300	 9.085350	-5.459579	 1.016053	 6.153527	 9.030192	 10.128630	-9.078332	-101.590700	-2.911887	 95.248920	 8.379134	 60.361390	-2.104349	 37.377300	-1.858731	 1.580364	-3.191725	 1.447137	 53.720820	-3.659966	 14.643930	-7.276185	-7.086018	 8.360103	 2.066518	 4.963066	-4.014628	-0.346955	 16.687080	-5.432577	-3.740467	-1.111902	-3.019373	-49.122340	 87.608810	-5.058430	-90.893550	-30.784770	-11.973830	 96.601750	-4.728246	-0.437041	 7.818923	-3.271168	-29.492430	-17.787490	-2.909938	 16.491670	-2.869826	 14.359670	 23.053100	-6.804509	-8.239867	-2.131385	 0.447455
 0.805138	 1.176970	-0.154278	 10.948330	-4.112113	-44.995700	 175.470000	 16.689070	-6.475033	 5.956019	-48.377410	 10.286010	 73.000520	 49.543640	-97.722380	 1.397949	 23.660700	-7.473987	 129.173300	 24.845510	 67.231340	-5.665870	-48.880890	-5.678585	-38.966680	 47.162320	 52.513580	-1.768428	 32.869830	 3.142305	 1.778294	 7.498044	 9.043386	-5.026515	 1.145729	 5.684100	 8.448488	 9.703600	-10.595980	-101.849500	-4.057642	 96.940520	 15.559190	 58.737920	-10.096900	 38.178280	-1.887638	 1.644423	 3.450732	-1.125631	 53.254210	-4.170413	 14.385620	-7.119347	-7.109428	 8.437538	 2.080951	 4.963066	-4.014628	-0.346955	 16.402790	-8.302242	-5.122219	 0.045913	-4.924652	-49.618440	 87.398990	-6.654377	-90.649380	-28.110670	-12.107590	 96.390780	-4.605490	-0.425803	 7.391976	-2.160842	-41.279960	-14.476630	-2.909031	 16.427840	-2.980275	 14.368760	 23.249530	-6.861025	-8.239867	-2.131385	 0.447455
 0.834142	 1.188105	-0.149027	 9.994966	-3.899768	-43.375670	 174.582000	 16.343960	-5.185343	 5.600480	-46.627340	 9.429788	 71.886290	 49.173090	-94.680150	 1.397967	 23.660690	-7.473995	 134.692100	 28.066780	 57.484310	-5.871527	-49.886640	-5.735792	-39.793560	 49.529720	 54.744580	-1.830879	 32.430260	 3.347323	 1.513979	 7.224611	 9.184017	-5.830304	 1.576966	 5.491502	 8.607185	 8.881448	-11.504890	-103.549500	-7.069634	 97.949530	 19.249810	 56.188500	-13.433220	 38.574790	-1.901805	 1.671019	 5.960401	-3.566488	 50.350000	-4.721834	 14.770070	-6.894674	-7.131037	 8.512486	 2.094729	 4.963066	-4.014628	-0.346955	 15.660380	-8.180125	-6.597164	 0.735531	-3.955194	-49.462990	 87.812200	-5.065181	-90.878060	-25.343050	-12.336360	 91.976030	-4.561618	-0.421707	 6.916630	 7.063374	-47.493260	-5.799793	-2.908077	 16.372510	-3.076056	 14.374630	 23.410500	-6.906806	-8.239867	-2.131385	 0.447455
 0.861461	 1.201572	-0.143392	 9.030869	-3.774031	-41.769960	 173.712800	 15.904160	-3.910109	 5.258086	-44.826130	 8.569718	 70.756710	 48.755980	-91.582280	 1.397984	 23.660680	-7.474005	 142.221100	 30.954930	 47.001560	-6.101506	-50.963810	-5.814561	-43.064000	 51.966240	 58.567050	-1.890919	 31.992400	 3.549913	 1.223969	 7.013114	 9.149267	-6.340248	 1.285986	 5.098567	 8.678257	 8.415418	-12.431900	-105.203800	-10.099780	 98.872530	 22.239140	 53.878470	-16.001060	 38.725830	-1.905523	 1.689459	 8.194487	-6.385116	 47.359160	-5.273411	 15.150770	-6.666770	-7.152575	 8.587100	 2.108478	 4.963066	-4.014628	-0.346955	 14.924690	-8.039772	-8.063809	 1.427401	-3.006528	-49.308790	 88.229190	-3.484189	-91.116730	-23.241280	-12.216780	 87.247790	-4.565563	-0.422043	 6.411694	 18.180080	-53.106180	 4.892441	-2.907223	 16.317410	-3.171394	 14.380610	 23.570760	-6.952463	-8.239867	-2.131385	 0.447455
 0.895082	 1.219572	-0.135799	 7.811837	-3.653891	-39.851310	 172.788300	 14.731360	-2.375866	 4.734810	-41.837570	 7.435878	 69.185040	 48.095510	-87.508060	 1.398004	 23.660660	-7.474016	 152.164800	 32.562160	 33.707310	-5.786297	-49.474660	-5.454173	-45.039000	 52.920820	 60.453500	-1.960241	 31.466380	 3.791210	 0.920935	 6.798532	 8.930926	-7.321387	-0.051011	 4.436299	 8.987546	 8.308581	-13.571260	-107.146200	-13.766630	 99.874200	 25.221180	 51.632270	-18.337140	 39.167110	-1.920386	 1.720312	 9.914883	-10.590150	 44.173690	-5.939131	 15.605070	-6.387548	-7.178467	 8.676694	 2.125029	 4.963066	-4.014628	-0.346955	 14.046950	-7.846738	-9.821312	 2.266492	-1.888822	-49.123810	 88.737790	-1.588554	-91.418090	-21.130740	-11.831990	 81.405070	-4.568851	-0.422300	 5.743239	 35.326360	-58.186100	 21.162550	-2.906325	 16.251260	-3.285841	 14.387980	 23.763200	-7.007387	-8.239867	-2.131385	 0.447455
 0.911889	 1.229478	-0.131103	 6.514140	-3.861992	-39.553730	 172.959800	 12.997200	-2.202721	 4.410080	-39.828100	 6.592298	 68.230330	 47.948100	-85.277720	 1.398012	 23.660650	-7.474021	 156.593700	 31.520390	 28.129750	-5.328561	-47.137160	-4.780216	-44.303960	 52.567180	 59.301560	-1.825191	 30.807930	 3.719044	 0.592308	 6.501332	 8.788575	-6.630009	 0.502730	 4.181670	 7.835982	 7.142735	-13.688290	-107.937000	-16.185930	 100.579600	 26.545310	 51.072660	-20.203540	 39.696240	-1.940772	 1.719085	 11.476710	-15.437880	 42.135580	-6.292859	 15.588520	-6.257685	-7.200191	 8.755712	 2.140194	 4.963066	-4.014628	-0.346955	 12.960250	-8.213202	-10.654310	 2.021924	-0.864771	-48.549200	 89.616520	-0.480880	-91.657190	-20.431390	-11.708250	 77.922520	-4.562777	-0.421661	 5.651280	 42.643490	-58.152240	 29.573910	-2.905345	 16.197190	-3.379428	 14.394160	 23.920430	-7.052312	-8.239867	-2.131385	 0.447455
 0.929321	 1.240474	-0.126080	 5.254948	-4.061823	-39.283140	 173.156400	 11.018490	-2.038306	 4.037819	-37.369500	 5.715145	 67.122020	 47.719800	-82.822590	 1.398020	 23.660650	-7.474025	 160.339100	 29.795890	 22.978180	-4.767659	-43.961610	-4.028774	-42.454230	 51.837230	 57.172440	-1.698614	 30.182420	 3.652542	 0.297065	 6.229795	 8.574331	-6.247179	 0.282709	 3.850996	 6.895685	 6.375038	-13.822040	-108.669300	-18.494610	 101.226300	 27.665350	 50.822650	-21.802020	 40.192990	-1.959835	 1.718003	 12.351390	-20.378660	 40.587950	-6.628629	 15.571970	-6.134512	-7.220844	 8.830742	 2.154627	 4.963066	-4.014628	-0.346955	 11.922080	-8.546888	-11.452450	 1.775160	 0.105320	-47.984070	 90.455700	 0.567674	-91.900010	-19.938330	-11.423750	 74.487060	-4.559772	-0.421536	 5.594261	 49.287730	-57.781330	 37.069230	-2.904500	 16.145850	-3.468271	 14.400160	 24.069730	-7.095040	-8.239867	-2.131385	 0.447455
